<?xml version="1.0" encoding="UTF-8"?>
<!DOCTYPE svg PUBLIC "-//W3C//DTD SVG 1.1//EN" "http://www.w3.org/Graphics/SVG/1.1/DTD/svg11.dtd">
<!-- Creator: CorelDRAW 2020 (64 Bit) -->
<svg xmlns="http://www.w3.org/2000/svg" xml:space="preserve" width="70.0664mm" height="114.911mm" version="1.1" style="shape-rendering:geometricPrecision; text-rendering:geometricPrecision; image-rendering:optimizeQuality; fill-rule:evenodd; clip-rule:evenodd"
viewBox="0 0 6992.41 11467.73"
 xmlns:xlink="http://www.w3.org/1999/xlink"
 xmlns:xodm="http://www.corel.com/coreldraw/odm/2003">
 <defs>
  <style type="text/css">
   <![CDATA[
    .fil0 {fill:#CB7371}
    .fil2 {fill:black}
    .fil1 {fill:#410C38}
   ]]>
  </style>
 </defs>
 <g id="Camada_x0020_1">
  <metadata id="CorelCorpID_0Corel-Layer"/>
  <g id="_1288078809296">
   <rect class="fil0" x="2728.26" y="96.21" width="1535.88" height="1267.43" rx="265.38" ry="597.1"/>
   <path class="fil0" d="M3324.78 1066.52l342.84 0c1731.8,0 3148.73,1416.86 3148.73,3148.72 0,1736.88 0,3895.26 0,5632.14 0,954.81 -660.52,1620.35 -1620.38,1620.35l-3399.54 0c-970.41,0 -1620.38,-665.54 -1620.38,-1620.35 0,-1736.88 0,-3895.26 0,-5632.14 0,-1731.87 1416.94,-3148.72 3148.73,-3148.72z"/>
   <path class="fil1" d="M4004.14 975.13c65.97,6.58 131.39,15.11 196.2,25.51l0 -367.88c0,-264.27 -216.19,-480.42 -480.42,-480.42l-447.42 0c-264.23,0 -480.42,216.15 -480.42,480.42l0 367.87c64.81,-10.41 130.22,-18.93 196.19,-25.51l0 -332.17c0,-160.01 130.89,-290.88 290.88,-290.88l434.12 0c159.98,0 290.88,130.87 290.88,290.88l0 332.18zm345.83 52.96c1503.7,313.3 2642.44,1653.26 2642.44,3246.44 0,1828.98 0,3657.96 0,5486.93 0,938.71 -767.83,1706.27 -1706.3,1706.27l-3579.81 0c-938.47,0 -1706.3,-767.55 -1706.3,-1706.27 0,-1828.98 0,-3657.96 0,-5486.93 0,-1593.19 1138.74,-2933.15 2642.45,-3246.44l0 -389.94c0,-350.95 287.17,-638.15 638.15,-638.15l431.21 0c350.99,0 638.15,287.21 638.15,638.15l0 389.94zm-1024.82 138.1l342.12 0c1728.2,0 3142.19,1416.86 3142.19,3148.72 0,1736.88 0,3613.17 0,5350.04 0,954.81 -659.15,1620.35 -1617.02,1620.35l-3392.48 0c-968.4,0 -1617.02,-665.54 -1617.02,-1620.35 0,-1736.88 0,-3613.17 0,-5350.04 0,-1731.87 1413.99,-3148.72 3142.19,-3148.72z"/>
   <rect class="fil1" transform="matrix(1.22319 1.22319 -1.22319 1.22319 3403.69 2858.23)" width="717.32" height="717.32" rx="57.41" ry="57.41"/>
   <rect class="fil0" transform="matrix(1.00069 1.00069 -1.00069 1.00069 3403.69 3017.83)" width="717.32" height="717.32"/>
   <rect class="fil0" x="1125.92" y="6631.68" width="4740.57" height="3039.85" rx="555.62" ry="223"/>
   <path class="fil1" d="M1460.85 6539.55l4070.73 0c226.99,0 412.6,185.69 412.6,412.63l0 2398.85c0,226.94 -185.61,412.63 -412.6,412.63l-4070.73 0c-226.99,0 -412.6,-185.69 -412.6,-412.63l0 -2398.85c0,-226.94 185.61,-412.63 412.6,-412.63zm356.01 1167.6c26.62,28.01 42.94,65.9 42.94,107.58 0,86.28 -69.95,156.23 -156.23,156.23 -86.28,0 -156.23,-69.95 -156.23,-156.23 0,-43.07 17.43,-82.08 45.63,-110.35l0 -322.4 -392.08 0 0 1968.33c0,147.57 120.83,268.29 268.35,268.29l4053.96 0c147.52,0 268.34,-120.72 268.34,-268.29l0 -1968.33 -3974.68 0 0 325.17zm-113.29 17.82c49.57,0 89.76,40.19 89.76,89.76 0,49.57 -40.19,89.76 -89.76,89.76 -49.57,0 -89.76,-40.19 -89.76,-89.76 0,-49.57 40.19,-89.76 89.76,-89.76zm-502.69 -446.41l4590.66 0 0 -325.69c0,-147.56 -120.82,-268.29 -268.34,-268.29l-4053.96 0c-147.52,0 -268.35,120.73 -268.35,268.29l0 325.69z"/>
   <path class="fil2" d="M1281.56 3403.99l0 0c19.21,0 34.93,12.38 34.93,27.5l0 456.59c0,15.12 -15.72,27.5 -34.93,27.5l0 0c-19.21,0 -34.93,-12.37 -34.93,-27.5l0 -456.59c0,-15.13 15.72,-27.5 34.93,-27.5z"/>
   <path class="fil2" d="M1512.6 3403.99l0 0c19.21,0 34.93,12.38 34.93,27.5l0 456.59c0,15.12 -15.72,27.5 -34.93,27.5l0 0c-19.21,0 -34.93,-12.37 -34.93,-27.5l0 -456.59c0,-15.13 15.72,-27.5 34.93,-27.5z"/>
   <path class="fil2" d="M5479.81 3403.99l0 0c19.21,0 34.93,12.38 34.93,27.5l0 456.59c0,15.12 -15.72,27.5 -34.93,27.5l0 0c-19.21,0 -34.93,-12.37 -34.93,-27.5l0 -456.59c0,-15.13 15.72,-27.5 34.93,-27.5z"/>
   <path class="fil2" d="M5710.85 3403.99l0 0c19.21,0 34.93,12.38 34.93,27.5l0 456.59c0,15.12 -15.72,27.5 -34.93,27.5l0 0c-19.21,0 -34.93,-12.37 -34.93,-27.5l0 -456.59c0,-15.13 15.72,-27.5 34.93,-27.5z"/>
  </g>
 </g>
</svg>
